<?xml version="1.0" standalone="no"?>
<!DOCTYPE svg PUBLIC "-//W3C//DTD SVG 20010904//EN"
 "http://www.w3.org/TR/2001/REC-SVG-20010904/DTD/svg10.dtd">
<svg version="1.0" xmlns="http://www.w3.org/2000/svg"
 width="200.000000pt" height="200.000000pt" viewBox="0 0 200.000000 200.000000"
 preserveAspectRatio="xMidYMid meet">
<metadata>
Created by potrace 1.10, written by Peter Selinger 2001-2011
</metadata>
<g transform="translate(0.000000,200.000000) scale(0.100000,-0.100000)"
fill="#000000" stroke="none">
<path d="M645 1876 c-47 -32 -322 -306 -352 -353 -8 -12 -26 -55 -39 -95 -23
-66 -26 -94 -31 -290 -6 -202 -5 -219 13 -245 13 -19 21 -52 24 -108 5 -80 5
-80 33 -80 26 1 27 -1 27 -55 0 -66 37 -169 112 -310 56 -106 68 -123 118
-156 19 -13 51 -37 70 -54 57 -48 130 -62 300 -57 80 2 167 9 193 15 97 23
267 119 373 212 68 59 90 85 119 144 34 70 35 74 35 194 l0 122 30 0 c24 0 33
6 41 27 5 14 23 41 39 60 29 32 30 38 30 131 0 110 -32 378 -60 495 -11 42
-27 88 -38 102 -67 85 -247 197 -339 211 -26 4 -59 15 -72 25 -13 11 -40 19
-60 19 -24 0 -42 7 -54 20 -12 14 -29 20 -61 20 -35 0 -45 4 -49 20 -5 19 -13
20 -179 19 l-173 0 -50 -33z m370 -36 c13 -15 31 -20 65 -20 39 0 49 -4 53
-20 4 -16 14 -20 52 -20 30 0 57 -7 73 -19 15 -10 49 -22 77 -26 74 -10 172
-64 255 -139 59 -53 85 -114 100 -236 5 -41 16 -126 25 -189 8 -63 15 -149 15
-191 0 -71 -2 -79 -30 -110 -17 -18 -30 -40 -30 -47 0 -7 -3 -13 -8 -13 -8 0
-24 43 -47 129 -9 29 -23 66 -32 81 -16 29 -58 54 -72 45 -5 -2 -18 7 -29 20
-12 14 -33 25 -46 25 -14 0 -36 11 -50 25 -14 14 -37 25 -51 25 -15 0 -47 18
-81 45 -62 51 -90 57 -104 20 -11 -28 -26 -31 -54 -10 -27 20 -53 19 -83 -5
-35 -27 -44 -26 -81 16 l-32 36 -69 -7 c-56 -6 -74 -4 -93 9 -36 25 -64 20
-87 -16 -11 -18 -38 -51 -60 -72 -22 -22 -46 -56 -52 -75 -6 -20 -26 -52 -45
-71 -18 -19 -45 -62 -59 -95 -51 -116 -69 -146 -97 -159 l-28 -14 0 58 c0 42
-5 63 -17 76 -37 36 -26 411 15 527 20 56 121 188 162 212 9 6 45 43 79 82 35
40 86 88 114 108 l52 35 141 0 c128 0 143 -2 159 -20z m-195 -635 c59 -1 68
-4 97 -33 38 -39 85 -43 119 -11 22 21 25 21 48 5 36 -23 80 -21 97 5 14 20
15 20 66 -20 28 -23 61 -41 73 -41 13 0 33 -11 46 -25 13 -14 34 -25 47 -25
15 0 31 -10 41 -25 11 -17 26 -25 45 -25 57 0 91 -120 91 -326 0 -145 0 -145
-35 -219 -19 -41 -38 -75 -42 -75 -5 0 -38 -28 -75 -63 -48 -46 -96 -78 -180
-120 -137 -69 -176 -78 -344 -84 -159 -5 -206 6 -290 70 -101 78 -119 102
-194 272 -10 22 -26 58 -36 80 -10 22 -20 66 -22 98 -4 48 -1 64 16 86 27 37
92 167 92 185 0 8 20 38 43 68 24 29 52 69 62 88 10 19 41 61 69 93 44 50 54
56 76 50 14 -4 54 -8 90 -8z"/>
<path d="M1231 921 c-16 -28 -14 -46 7 -64 23 -21 65 -22 81 -3 7 8 11 30 9
48 -3 31 -5 33 -45 36 -33 2 -44 -1 -52 -17z"/>
<path d="M861 896 c-17 -20 -10 -56 12 -70 28 -18 72 12 72 49 0 27 -3 30 -36
33 -23 2 -40 -2 -48 -12z"/>
<path d="M1094 696 c-8 -21 15 -58 34 -54 11 2 17 13 17 33 0 24 -5 31 -23 33
-13 2 -24 -3 -28 -12z"/>
<path d="M1054 465 c-14 -34 2 -44 63 -38 64 6 79 14 70 37 -9 22 -125 23
-133 1z"/>
</g>
</svg>
