<svg id="svg74" xmlns="http://www.w3.org/2000/svg" viewBox="0 0 311.81 311.81"><defs><style>.cls-1{fill:#e7deff;}.cls-2{fill:none;}.cls-2,.cls-3{stroke:#000;stroke-miterlimit:10;}.cls-3{fill:#fff;stroke-width:3px;}</style></defs><circle class="cls-1" cx="155.91" cy="155.91" r="155.91"/><path id="path934" class="cls-2" d="M108.5,270.78"/><path class="cls-3" d="M213.51,266.69a14.3,14.3,0,0,1-1,1.49c-.21.27-.44.57-.69.87a9.31,9.31,0,0,1-5.52,1.73,9.71,9.71,0,0,1-7.08-3.39c8-7.27,4.23-6.74,7.18-14.07-9.46-5-10.73-12.7-9.59-18.31a13.31,13.31,0,0,1-4.33-15.89l1,0c4.43,0,7.93-2.08,11.47-4l.08.1c-4.43,8.47-1.08,14.8,3.8,18.87-3.15,8.75-.19,12.37,6.12,15.82C212.65,255.8,217.25,260.11,213.51,266.69Z"/><path class="cls-3" d="M108.8,257.11a15,15,0,0,1-.11,6.62,13.57,13.57,0,0,1-2.47,4.6,11,11,0,0,1-8.09,2.36,10.82,10.82,0,0,1-6-3c10.65-6.9,5-7.86,9.06-13.32C96,253,91,247,92.7,238a38.61,38.61,0,0,1-6-17.52c-.1-1.14-1.68-16.29,3.93-19.85,1,1.52,2.11,3,3.21,4.3,1.6,2,3.22,3.76,4.65,5.28a64.89,64.89,0,0,0-1.24,6.58c-.85,6.64.13,11.92,4.7,19.08-.07,1-.12,2-.12,3,0,4,.86,7.71,4.54,9.65a11.21,11.21,0,0,0,2.82,1C108,252.24,108.44,254.65,108.8,257.11Z"/><path class="cls-3" d="M251.29,158.71c-.57,7.57-4.55,8.34-15.19,8.85,2.54,10.42-2.93,6.86-8.58,10.37,2.84,4.17.42,5.78,1.14,8.82,4.22,13.84-.07,14.95-2.18,27.22,4,4.4,6.46,11.28,3.26,16.38,2.95,7.87,4.11,13.88-4.16,20a23.23,23.23,0,0,1,3,11.82,47.83,47.83,0,0,1-.8,8c-3.69,2.69-12.25,8-18.87,1.95a30.54,30.54,0,0,0,3-3.12c.25-.3.48-.6.69-.87a14.3,14.3,0,0,0,1-1.49c3.74-6.58-.86-10.89,1.51-16.76-6.31-3.45-9.27-7.07-6.12-15.82-4.88-4.07-8.23-10.4-3.8-18.87l-.08-.1c-3.54,1.93-7,4-11.47,4l-1,0-.39,0c-.2,0-.41,0-.62-.07l-.21,0a22,22,0,0,1-7.72-2.78c-8.82,9.45-17-2.85-24.64,4.4-9.56,3.57-14.94,0-19.33-1.6-5.32,1.25-13.76-3.06-17.74-7.3,1,8,7.29,10.58,1.49,21.08,5.24,7.86,1.67,16.39-3.67,18.25a21.39,21.39,0,0,1,3,11.08,45.69,45.69,0,0,1-.81,7.65c-3.69,2.7-12.25,8-18.87,1.95a26.75,26.75,0,0,0,3.23-3.41,13.57,13.57,0,0,0,2.47-4.6,15,15,0,0,0,.11-6.62c-.36-2.46-.76-4.87.34-7.61a11.21,11.21,0,0,1-2.82-1c-3.68-1.94-4.54-5.63-4.54-9.65,0-1,0-2,.12-3-4.57-7.16-5.55-12.44-4.7-19.08a64.89,64.89,0,0,1,1.24-6.58c-1.43-1.52-3-3.3-4.65-5.28-1.1-1.35-2.19-2.78-3.21-4.3l-.07-.09c-3.63-5.41-6.33-11.74-5.06-18-6.49-4.14-6.16-23.63-3.51-33.28-1.71-4.81-3.84-8.91-.63-13a88.36,88.36,0,0,0,7.21-6.73,77.64,77.64,0,0,0,9.94,3.26,32.63,32.63,0,0,0,14.38-.83,22.43,22.43,0,0,0,3-1.15c1.61,3.66,10.56,3.72,4.81,15,13.52.4,6.11,21.3,11.48,17.75,10.24-7.08,19.11,8.39,23.12,4.59,7.63-7.53,20.19-5.93,29-3.37,4.18,1.16,6.37,1,11-.62,8.91-3.42,14.13-.24,23.77,4.69,1.22-3.85,3.48-9.67,8.38-9.67a7.22,7.22,0,0,1,1.78.24c2.36-5.88,10.54-7.94,13.33-6.1C249.09,135.5,266.12,157,251.29,158.71Z"/><path class="cls-3" d="M133.58,104.9a.91.91,0,0,1,0,.17,10.23,10.23,0,0,1-.72,3.76c-4,9.55-8.66,18.09-17,22a22.43,22.43,0,0,1-3,1.15,32.63,32.63,0,0,1-14.38.83,77.64,77.64,0,0,1-9.94-3.26C75.58,124.22,66,115.16,65.36,98.08a22.85,22.85,0,0,1,2.94-9.56c1.74-3.12,4.12-5.81,6.86-7,5.06-1.45,8.66-5.64,13.76-7,4.27-.71,8.61,2.33,12.85.58,4-2.06,8.86-4.87,13.48-2.82C120.29,75.18,133.47,93.48,133.58,104.9Z"/><path class="cls-3" d="M133.57,105.07a.91.91,0,0,0,0-.17c-.11-11.42-13.29-29.72-18.33-32.65-4.62-2-9.46.76-13.48,2.82-4.24,1.75-8.58-1.29-12.85-.58-5.1,1.34-8.7,5.53-13.76,7-2.74,1.24-5.12,3.93-6.86,7a22.85,22.85,0,0,0-2.94,9.56c-2.32-2.75-6-3.68-6.25-7.61.94-11-.21-31.61,8.44-37.77,10.5-8.18,39.71-15.29,50-12.25,6.62,3.93,14.29,16.56,19.2,21.43C141.51,69.52,139.85,102.33,133.57,105.07Z"/></svg>