<?xml version="1.0" standalone="no"?>
<!DOCTYPE svg PUBLIC "-//W3C//DTD SVG 20010904//EN"
 "http://www.w3.org/TR/2001/REC-SVG-20010904/DTD/svg10.dtd">
<svg version="1.0" xmlns="http://www.w3.org/2000/svg"
 width="900.000000pt" height="900.000000pt" viewBox="0 0 900.000000 900.000000"
 preserveAspectRatio="xMidYMid meet">
<metadata>
Created by potrace 1.10, written by Peter Selinger 2001-2011
</metadata>
<g transform="translate(0.000000,900.000000) scale(0.100000,-0.100000)"
fill="#000000" stroke="none">
<path d="M3579 7440 c-37 -39 -40 -40 -107 -40 -63 0 -71 -2 -97 -30 -25 -26
-36 -30 -85 -30 -45 0 -64 -5 -91 -25 -52 -38 -88 -52 -154 -59 -132 -15 -339
-126 -485 -261 -30 -28 -64 -57 -75 -65 -31 -23 -95 -122 -95 -148 0 -13 -5
-33 -11 -44 -24 -45 -49 -162 -49 -229 0 -38 -4 -78 -10 -88 -5 -10 -12 -63
-16 -117 -3 -55 -13 -112 -21 -129 -11 -23 -16 -87 -20 -266 -3 -130 -3 -252
1 -271 4 -20 19 -49 35 -65 43 -43 91 -114 91 -134 0 -19 18 -27 80 -31 l35
-3 5 -225 c6 -239 9 -259 60 -336 15 -22 35 -61 44 -86 16 -42 83 -118 103
-118 5 0 42 -34 83 -75 41 -41 79 -75 86 -75 6 0 21 -11 34 -25 21 -22 95 -65
113 -65 3 0 26 -13 50 -30 25 -16 51 -30 58 -30 16 0 119 -69 119 -80 0 -4
-15 -26 -32 -50 -71 -94 -88 -121 -88 -141 0 -12 -10 -23 -26 -29 -14 -6 -39
-24 -56 -40 -16 -17 -35 -30 -41 -30 -7 0 -29 -14 -50 -31 -37 -30 -37 -31
-37 -108 0 -73 2 -79 30 -106 19 -18 30 -39 30 -56 0 -15 9 -46 20 -70 11 -24
20 -58 20 -76 0 -17 9 -52 20 -78 18 -42 20 -70 21 -263 0 -119 4 -239 9 -267
9 -58 32 -121 48 -137 7 -7 12 -24 12 -38 0 -16 12 -37 30 -55 17 -16 30 -39
30 -51 0 -20 10 -58 46 -172 8 -23 14 -58 14 -77 0 -19 6 -49 14 -67 19 -46
46 -141 46 -165 0 -10 13 -32 30 -48 22 -21 30 -38 30 -64 0 -20 7 -45 15 -55
8 -11 15 -30 15 -42 0 -14 15 -34 40 -54 22 -17 47 -47 56 -66 33 -68 119
-126 229 -153 l30 -7 6 -204 c6 -236 16 -287 59 -312 l30 -17 4 -363 c6 -469
15 -625 39 -658 9 -13 17 -34 17 -46 0 -36 61 -66 126 -62 l53 3 -15 32 c-9
17 -28 36 -43 43 -15 6 -36 25 -46 43 -25 42 -35 205 -41 697 l-4 365 -45 41
-45 41 0 230 c0 185 -3 233 -14 242 -8 7 -43 16 -78 22 -34 5 -77 16 -95 25
-33 15 -113 100 -113 121 0 6 -12 21 -26 32 -35 28 -64 87 -64 132 0 27 -9 48
-33 77 -19 22 -39 62 -46 89 -7 26 -17 59 -23 73 -5 14 -14 54 -19 89 -5 35
-20 96 -34 137 -15 44 -25 97 -25 130 0 49 -3 59 -30 82 -16 15 -30 34 -30 43
0 9 -7 22 -16 30 -44 36 -48 62 -54 354 -4 232 -8 286 -22 315 -9 19 -19 52
-22 72 -4 20 -13 50 -21 65 -8 15 -15 38 -15 49 0 45 -13 85 -37 110 -35 38
-29 82 16 106 18 11 47 32 63 49 16 16 38 29 49 29 37 0 59 19 59 51 0 20 14
49 43 87 23 31 51 69 60 85 13 19 26 27 47 27 16 0 31 -4 34 -9 3 -4 32 -11
64 -13 32 -3 73 -13 90 -22 26 -13 70 -16 268 -16 159 0 249 4 271 12 44 16
52 4 20 -30 -27 -28 -37 -72 -17 -72 6 0 49 -37 95 -82 l85 -82 0 -86 c0 -66
-4 -94 -20 -123 -11 -20 -20 -41 -20 -46 0 -11 -42 -63 -87 -107 -18 -18 -33
-39 -33 -47 0 -8 -20 -34 -45 -58 -37 -36 -45 -50 -45 -79 1 -36 42 -107 70
-120 54 -25 88 -39 107 -45 33 -9 63 -53 63 -92 0 -22 -14 -59 -40 -103 -34
-59 -40 -77 -40 -127 1 -113 49 -124 147 -33 49 46 71 60 94 60 17 0 42 9 56
20 21 16 41 20 102 20 68 0 86 -4 152 -36 41 -20 86 -48 101 -63 15 -14 35
-33 45 -42 53 -47 128 -153 133 -187 5 -36 6 -37 45 -37 l40 0 6 90 c10 135
33 178 118 216 57 25 283 28 307 4 13 -12 50 -15 204 -15 165 0 196 -3 242
-20 63 -24 122 -77 139 -124 14 -40 51 -61 78 -46 13 7 20 25 23 65 8 95 60
139 203 171 44 10 89 24 100 31 12 8 51 13 108 13 80 0 92 -3 123 -26 22 -18
37 -40 45 -68 12 -45 90 -129 136 -147 36 -14 70 -4 79 23 5 17 -1 28 -27 51
-83 71 -99 88 -99 112 0 34 -53 90 -112 120 -43 21 -63 25 -145 25 -81 0 -104
-4 -148 -25 -29 -13 -77 -29 -106 -34 -109 -19 -168 -49 -203 -104 -10 -15
-23 -27 -28 -27 -5 0 -30 15 -56 33 -76 52 -144 66 -328 67 -135 0 -164 3
-175 16 -11 13 -37 15 -183 12 -166 -3 -173 -4 -230 -33 -62 -31 -122 -94
-128 -134 -5 -37 -25 -37 -56 0 -15 18 -38 42 -51 53 -13 12 -39 36 -59 54
-19 17 -40 32 -47 32 -7 0 -32 11 -56 25 -75 42 -87 45 -193 45 -85 0 -108 -3
-127 -18 -13 -11 -42 -23 -65 -29 l-40 -10 4 107 4 108 -41 45 c-34 37 -52 48
-94 57 -54 11 -97 34 -97 50 0 18 98 155 149 208 28 29 51 62 51 73 0 10 9 36
20 56 17 32 20 57 20 161 0 125 -8 162 -36 162 -17 0 -124 97 -124 112 0 6 9
21 20 35 11 14 20 33 20 43 0 9 26 35 58 58 31 22 75 59 97 81 21 23 45 41 51
41 20 0 134 110 140 135 3 13 14 31 25 41 10 9 19 23 19 31 0 7 10 30 23 51
27 43 105 203 137 282 55 134 63 166 69 275 l6 110 42 3 c66 5 73 23 73 173
l0 126 31 39 32 39 -6 400 c-6 385 -9 429 -38 487 -5 10 -9 25 -9 34 0 15 -26
82 -61 159 -10 22 -37 58 -60 80 -23 22 -53 56 -67 75 -15 19 -56 63 -92 97
-79 75 -93 89 -222 227 -91 96 -208 196 -230 196 -4 0 -24 11 -44 25 l-37 25
-290 0 -290 0 -38 -40z m425 -1240 c36 0 68 5 71 10 10 15 128 12 169 -5 24
-10 36 -22 36 -35 0 -11 11 -24 27 -32 15 -8 30 -25 34 -42 5 -16 24 -42 44
-58 27 -23 35 -37 35 -61 0 -42 22 -80 98 -169 42 -50 67 -89 77 -124 23 -75
119 -265 159 -313 36 -43 36 -43 36 -139 0 -79 -5 -110 -26 -167 -14 -38 -29
-83 -34 -100 -4 -16 -26 -66 -49 -110 -22 -44 -41 -84 -41 -88 0 -5 -19 -41
-42 -80 -24 -40 -52 -89 -63 -110 -24 -49 -81 -106 -170 -172 -39 -29 -76 -60
-84 -69 -7 -9 -46 -26 -85 -37 -39 -11 -88 -27 -109 -35 -53 -20 -436 -20
-475 0 -15 8 -50 17 -77 20 -92 12 -195 47 -216 73 -6 7 -19 13 -28 13 -9 0
-22 5 -28 11 -7 7 -34 20 -60 29 -26 9 -65 29 -86 43 -21 14 -48 29 -60 33
-49 15 -187 127 -187 151 0 7 -13 19 -28 27 -47 24 -152 130 -152 153 0 12 -4
24 -9 28 -9 5 -28 42 -65 128 -23 54 -24 569 -1 613 8 16 15 43 15 61 0 37 53
159 82 191 15 15 33 22 60 22 38 0 54 11 90 63 13 18 29 26 64 30 39 4 54 12
85 46 32 34 44 41 76 41 31 0 52 10 104 49 36 27 71 56 78 65 20 24 47 19 71
-14 19 -27 27 -30 75 -30 41 0 63 6 91 25 20 14 40 25 44 25 5 0 27 -16 50
-35 35 -29 50 -35 88 -35 60 1 110 26 140 70 26 39 69 61 94 49 9 -5 46 -9 82
-9z"/>
<path d="M3090 5710 c-30 -30 -28 -103 5 -135 35 -36 91 -34 133 4 39 36 43
84 11 125 -18 22 -28 26 -75 26 -41 0 -59 -5 -74 -20z"/>
<path d="M3775 5655 c-43 -42 -28 -90 39 -126 47 -25 58 -24 90 6 42 39 35
105 -15 130 -43 23 -86 19 -114 -10z"/>
<path d="M3415 5295 c-30 -29 -32 -65 -7 -88 25 -23 34 -21 65 11 33 34 35 66
5 86 -30 21 -35 20 -63 -9z"/>
<path d="M3345 4888 c-21 -18 -26 -29 -21 -46 7 -20 14 -22 79 -22 50 0 80 -5
95 -16 21 -14 25 -14 47 0 28 19 32 52 11 82 -12 16 -29 20 -99 22 -77 4 -86
2 -112 -20z"/>
<path d="M1911 5456 c-25 -27 -131 -86 -153 -86 -8 0 -38 -16 -68 -36 l-54
-35 -95 5 c-304 16 -551 35 -583 45 -32 10 -38 16 -38 40 0 43 -21 55 -67 40
-49 -17 -73 -43 -73 -84 0 -35 25 -65 56 -65 10 0 51 -7 89 -16 69 -16 385
-41 639 -50 110 -4 131 -3 138 10 5 9 14 16 19 16 6 0 22 9 36 20 14 11 35 20
46 20 11 0 44 16 72 35 29 19 65 39 79 45 33 12 44 54 25 89 -20 35 -40 37
-68 7z"/>
<path d="M1797 5133 c-12 -11 -8 -201 4 -208 16 -11 21 1 21 44 -1 25 6 49 18
63 18 22 19 22 39 4 12 -11 21 -33 23 -60 2 -28 8 -41 18 -41 12 0 15 13 15
59 -1 49 -4 61 -24 78 -14 10 -30 16 -38 13 -7 -3 -19 -8 -27 -11 -11 -4 -17
4 -22 30 -6 35 -14 43 -27 29z"/>
<path d="M1975 5098 c-9 -63 -2 -171 12 -175 15 -5 19 24 15 130 -4 93 -17
115 -27 45z"/>
<path d="M702 5074 c-31 -21 -29 -61 3 -76 26 -12 34 -30 13 -27 -48 6 -52
-23 -7 -41 59 -25 116 35 68 70 l-22 18 21 11 c30 16 28 28 -8 46 -36 19 -40
19 -68 -1z"/>
<path d="M867 5064 c-15 -14 -29 -34 -32 -44 -8 -26 11 -67 40 -86 21 -14 30
-14 55 -4 59 25 69 92 19 134 -38 32 -50 32 -82 0z m73 -61 c0 -32 -33 -47
-54 -24 -20 22 -20 30 0 52 13 15 20 16 35 6 10 -6 19 -22 19 -34z"/>
<path d="M1045 5081 c-30 -6 -30 -7 -30 -76 0 -56 3 -70 15 -70 10 0 16 13 18
40 2 26 12 49 29 67 22 23 25 50 5 47 -4 -1 -20 -4 -37 -8z"/>
<path d="M1152 5067 c-16 -17 -22 -36 -22 -69 0 -38 4 -49 26 -63 22 -14 31
-15 55 -5 41 17 38 40 -6 40 -25 0 -35 4 -35 15 0 12 9 15 38 13 31 -3 37 0
40 18 3 23 -39 74 -62 74 -7 0 -22 -10 -34 -23z"/>
<path d="M1317 5070 c-34 -27 -43 -70 -22 -110 13 -26 14 -34 4 -47 -30 -35
64 -59 109 -27 20 14 22 24 22 104 0 88 -9 112 -33 91 -8 -6 -18 -6 -27 -1
-21 13 -24 13 -53 -10z m73 -67 c0 -32 -33 -47 -54 -24 -20 22 -20 30 0 52 13
15 20 16 35 6 10 -6 19 -22 19 -34z"/>
<path d="M1493 5071 c-26 -22 -30 -41 -8 -41 8 0 15 -6 15 -14 0 -8 -7 -16
-15 -20 -8 -3 -15 -16 -15 -29 0 -31 40 -50 76 -37 14 6 30 8 35 4 5 -3 9 21
9 55 0 48 -4 65 -20 81 -25 25 -48 25 -77 1z"/>
<path d="M1649 5069 c-29 -29 -11 -78 29 -79 7 0 10 -5 7 -10 -4 -6 -10 -8
-14 -6 -13 9 -34 -12 -28 -28 10 -24 52 -30 81 -11 29 19 35 52 11 61 -8 4
-15 12 -15 20 0 8 7 14 15 14 22 0 18 27 -7 44 -30 22 -54 20 -79 -5z"/>
<path d="M1190 4806 c0 -8 5 -18 10 -21 6 -3 10 3 10 14 0 12 -4 21 -10 21 -5
0 -10 -6 -10 -14z"/>
<path d="M1273 4763 c-28 -19 -30 -49 -3 -63 11 -6 20 -15 20 -19 0 -5 -9 -11
-20 -14 -30 -8 -24 -25 14 -44 32 -15 37 -15 60 1 34 22 36 69 4 83 l-23 10
23 7 c29 10 28 30 -3 44 -33 15 -45 14 -72 -5z"/>
<path d="M1184 4756 c-3 -7 -4 -40 -2 -72 2 -44 7 -59 18 -59 16 0 26 79 15
122 -6 25 -23 31 -31 9z"/>
<path d="M925 4508 c-3 -8 -5 -55 -3 -104 2 -71 6 -89 18 -89 10 0 17 14 20
45 7 55 15 70 41 70 22 0 43 -43 35 -73 -6 -25 3 -47 20 -47 11 0 14 16 14 63
0 79 -8 91 -61 91 -37 1 -44 4 -49 25 -6 28 -27 39 -35 19z"/>
<path d="M1105 4509 c-10 -15 1 -23 20 -15 9 3 13 10 10 16 -8 13 -22 13 -30
-1z"/>
<path d="M1867 4514 c-13 -13 -7 -24 14 -24 11 0 19 5 17 12 -5 14 -22 21 -31
12z"/>
<path d="M749 4453 c-15 -17 -7 -185 8 -191 7 -2 17 8 23 22 7 20 17 26 38 26
65 0 97 93 49 138 -17 17 -34 21 -66 19 -23 -1 -47 -7 -52 -14z m99 -51 c4
-25 -13 -52 -32 -52 -21 0 -37 39 -26 61 15 28 54 22 58 -9z"/>
<path d="M1208 4459 c-23 -13 -32 -63 -18 -104 9 -27 9 -39 0 -50 -9 -11 -7
-18 9 -34 28 -28 66 -26 96 4 22 21 25 33 25 99 0 49 -4 77 -12 83 -19 11 -82
12 -100 2z m67 -69 c0 -31 -3 -35 -25 -35 -19 0 -26 6 -28 23 -5 36 5 54 30
50 19 -2 23 -9 23 -38z"/>
<path d="M1384 4456 c-21 -16 -13 -31 17 -31 29 0 27 -20 -2 -23 -31 -4 -42
-32 -28 -68 8 -22 13 -24 61 -21 l53 3 0 63 c0 50 -4 66 -20 77 -24 18 -56 18
-81 0z"/>
<path d="M1548 4463 c-26 -7 -33 -41 -12 -64 17 -18 17 -20 -2 -33 -18 -14
-18 -15 0 -35 36 -40 106 -21 106 29 0 28 -13 44 -37 45 -7 0 -12 5 -10 10 1
6 9 9 19 8 24 -3 31 25 8 37 -19 10 -42 11 -72 3z"/>
<path d="M1797 4463 c-4 -3 -7 -25 -7 -48 0 -44 -13 -65 -41 -65 -21 0 -29 20
-29 71 0 32 -3 39 -20 39 -17 0 -20 -7 -20 -50 0 -30 7 -61 16 -75 14 -21 23
-24 70 -24 l54 1 0 79 c0 73 -6 90 -23 72z"/>
<path d="M1104 4447 c-3 -8 -4 -41 -2 -73 2 -44 7 -59 18 -59 12 0 15 14 15
69 0 47 -4 71 -12 73 -7 3 -15 -2 -19 -10z"/>
<path d="M1867 4454 c-4 -4 -7 -36 -7 -71 0 -57 2 -63 20 -63 19 0 21 5 18 67
-3 61 -14 84 -31 67z"/>
<path d="M1710 4190 c-60 -6 -92 -14 -175 -42 -16 -5 -46 -14 -65 -18 -19 -4
-54 -17 -78 -29 -23 -12 -53 -26 -67 -31 -40 -15 -48 -43 -21 -69 23 -21 25
-21 67 -6 24 9 55 22 69 29 14 7 54 20 90 30 36 10 85 24 110 31 25 8 97 17
160 20 136 8 170 18 170 51 0 13 -9 28 -19 34 -21 11 -137 11 -241 0z"/>
<path d="M8015 3329 c-41 -26 -162 -147 -187 -187 -11 -19 -26 -52 -33 -75
l-12 -42 -139 3 c-125 3 -143 1 -179 -17 -21 -12 -44 -21 -51 -21 -19 0 -62
-39 -79 -73 -33 -65 -55 -152 -55 -224 l0 -71 -59 5 c-75 7 -108 -1 -117 -29
-9 -30 27 -58 76 -58 32 0 46 -7 82 -44 58 -59 88 -136 88 -227 l0 -70 52 -55
c49 -52 66 -75 87 -119 5 -11 20 -36 33 -55 45 -65 48 -90 48 -356 0 -273 3
-252 -60 -389 -18 -41 -44 -106 -54 -137 -8 -28 -37 -21 -49 11 -5 15 -23 36
-38 47 -15 10 -37 37 -48 59 -27 54 -61 71 -101 50 -38 -20 -38 -48 0 -75 17
-12 30 -27 30 -34 0 -7 15 -29 34 -50 18 -21 39 -56 45 -77 7 -22 24 -48 41
-61 20 -15 30 -30 30 -49 0 -14 7 -43 15 -62 22 -54 19 -71 -25 -117 -22 -23
-40 -47 -40 -55 0 -26 29 -81 59 -109 29 -28 63 -104 91 -206 7 -25 15 -111
17 -192 4 -139 5 -146 26 -152 12 -3 32 1 44 10 22 14 23 20 23 148 0 93 -5
146 -15 176 -8 23 -15 51 -15 61 0 11 -13 48 -30 82 -16 35 -30 69 -30 75 0 6
-13 27 -30 45 -16 19 -30 39 -30 44 0 5 14 22 30 38 25 24 30 36 30 77 0 27
-7 65 -15 85 -8 19 -15 52 -15 73 0 21 7 43 15 50 8 7 15 21 15 32 0 11 6 32
14 46 8 15 24 52 36 82 13 30 37 84 54 120 l31 65 3 283 3 283 -42 82 c-22 45
-47 89 -53 97 -7 8 -17 27 -24 42 -6 16 -31 49 -54 74 -41 44 -43 50 -49 128
-5 52 -15 95 -28 121 -12 21 -21 44 -21 50 0 6 -13 24 -30 40 -35 34 -38 50
-10 67 17 11 20 24 21 98 1 116 22 176 78 215 40 28 50 30 146 33 l103 4 40
-36 c62 -56 112 -48 112 18 1 22 7 52 15 66 8 14 14 35 15 48 0 35 41 91 116
160 67 62 69 63 119 60 43 -3 52 -7 63 -30 12 -25 19 -28 61 -28 32 0 53 5 61
15 10 12 28 15 69 13 63 -3 75 -20 47 -63 -14 -22 -24 -25 -75 -25 -51 0 -61
-3 -75 -25 -9 -13 -16 -45 -16 -70 0 -37 -6 -52 -30 -78 -16 -18 -48 -53 -71
-79 -40 -46 -44 -48 -94 -48 -60 0 -134 -32 -187 -80 -17 -16 -45 -32 -60 -36
-16 -3 -48 -17 -71 -30 -25 -14 -58 -24 -82 -24 -22 0 -56 -8 -75 -18 -28 -14
-35 -23 -35 -47 0 -28 3 -30 38 -33 53 -5 131 14 202 47 33 16 71 32 85 36 14
4 36 20 50 34 36 40 90 61 153 61 44 0 61 5 95 30 23 16 49 42 59 57 22 35 74
88 93 95 9 3 16 25 20 59 l5 54 40 3 c22 2 45 8 52 14 8 6 28 18 46 27 l32 16
-1 82 c-1 58 -6 89 -18 108 -16 25 -18 25 -145 25 -102 0 -131 3 -141 15 -19
23 -156 19 -195 -6z"/>
<path d="M3363 1702 c-14 -9 -49 -106 -68 -187 -8 -33 -21 -78 -29 -100 -10
-26 -15 -76 -15 -140 -1 -83 2 -105 19 -130 18 -27 20 -47 20 -215 0 -125 -5
-208 -14 -255 -48 -226 -66 -383 -66 -563 l0 -112 45 0 45 0 0 108 c0 169 18
319 66 547 10 50 14 136 14 299 0 216 -1 231 -21 263 -18 29 -21 45 -17 108 3
45 11 84 21 99 10 14 17 42 17 63 0 21 11 61 25 88 27 54 32 104 13 123 -13
13 -37 15 -55 4z"/>
<path d="M6645 1408 l-49 -43 -145 0 c-134 0 -149 2 -182 23 -72 44 -136 18
-158 -66 -6 -21 -23 -52 -38 -67 -26 -25 -33 -27 -93 -23 -94 5 -195 63 -236
133 -6 10 -23 23 -39 28 -38 13 -89 -14 -106 -56 -36 -86 -195 -287 -228 -287
-21 0 -67 25 -91 50 -14 14 -41 36 -60 50 -19 13 -64 52 -100 86 -36 34 -82
77 -103 95 -25 22 -41 47 -46 69 -5 25 -13 36 -28 38 -26 4 -63 -30 -63 -57 0
-28 55 -106 93 -133 18 -12 64 -52 103 -88 209 -191 222 -200 299 -200 l52 0
74 84 c41 46 96 116 123 155 27 39 55 71 62 71 7 0 25 -10 41 -23 51 -42 119
-84 149 -92 55 -15 214 -17 231 -4 16 14 83 113 95 142 9 21 16 21 64 0 30
-14 77 -19 199 -23 l160 -5 3 -77 c2 -62 -1 -85 -18 -117 -25 -51 -28 -198 -5
-254 10 -24 15 -70 15 -136 0 -94 1 -101 23 -112 45 -23 66 -51 73 -98 9 -60
18 -77 70 -124 l44 -40 0 -139 c0 -136 0 -139 24 -149 17 -8 29 -8 45 0 21 12
21 17 19 189 l-3 177 -33 17 c-56 28 -70 47 -77 103 -8 58 -26 92 -68 125 -26
21 -27 25 -27 116 0 62 -5 107 -15 131 -21 50 -19 126 5 173 16 31 20 59 20
130 0 71 4 99 20 130 25 49 26 102 2 123 -28 25 -45 21 -97 -25z"/>
<path d="M4637 1412 c-25 -28 -22 -39 38 -107 30 -34 55 -67 55 -72 0 -5 15
-27 34 -49 41 -48 66 -133 66 -227 0 -64 -1 -67 -35 -93 -30 -23 -35 -32 -35
-69 0 -24 7 -56 15 -71 12 -23 15 -76 15 -269 0 -193 -3 -246 -15 -269 -8 -15
-15 -36 -15 -45 0 -23 -41 -61 -67 -61 -25 0 -53 -30 -53 -58 0 -20 5 -22 60
-22 48 0 65 5 86 23 24 20 34 39 80 145 18 41 20 493 3 573 -11 52 -11 53 20
78 l31 26 0 100 c0 116 -33 241 -74 284 -13 14 -32 42 -43 61 -21 40 -120 140
-138 140 -7 0 -19 -8 -28 -18z"/>
<path d="M6251 1224 c-19 -24 -21 -40 -21 -175 0 -81 3 -155 6 -164 4 -8 21
-22 40 -30 l33 -14 4 -153 c4 -167 11 -198 76 -313 18 -32 49 -89 68 -125 56
-103 74 -117 106 -82 28 30 20 65 -32 143 -113 171 -131 232 -131 444 -1 161
-5 176 -53 194 l-27 11 0 133 c0 132 -6 157 -36 157 -7 0 -22 -12 -33 -26z"/>
</g>
</svg>
